<?xml version="1.0" encoding="UTF-8"?>
<svg xmlns="http://www.w3.org/2000/svg" version="1.1" viewBox="0 0 590.9 148.6">
  <defs>
    <style>
      .cls-1 {
        fill: #f05827;
      }
    </style>
  </defs>
  <!-- Generator: Adobe Illustrator 28.6.0, SVG Export Plug-In . SVG Version: 1.2.0 Build 709)  -->
  <g>
    <g id="Layer_1">
      <g>
        <path class="cls-1" d="M296.3,56.8c-3.9,0-7.3,2.6-8.3,6.3l-4.3,15.4c-.6,2.2-3.6,2.6-4.8.6l-4.7-8.4c-3.3-6-11.9-5.9-15.2,0l-4.4,8c-1.1,2-4.1,1.7-4.8-.5l-4.3-15c-1.1-3.8-4.6-6.4-8.5-6.4-6,0-10.3,5.9-8.4,11.6l10.9,33.5c1.4,4.3,5.4,7.3,10,7.3s8-2.5,9.7-6.3l5-11.7c.9-2.1,3.8-2.1,4.7,0l5.2,11.8c1.7,3.8,5.5,6.3,9.6,6.3s8.6-3,10-7.3l10.8-33.7c1.8-5.6-2.4-11.3-8.3-11.3Z"/>
        <path class="cls-1" d="M378.3,56.8c-5,0-9,4-9,9v34.3c0,5,4,9,9,9s9-4,9-9v-34.3c0-5-4-9-9-9Z"/>
        <path class="cls-1" d="M557.4,57.2c-16,0-27.5,10.9-27.5,26.2s11.5,26.2,27.5,26.2,27.5-11,27.5-26.2-11.6-26.2-27.5-26.2ZM557.4,94.4h0c-6.2,0-10.6-4.5-10.6-11s4.4-11,10.6-11,10.6,4.5,10.6,11-4.4,11-10.6,11Z"/>
        <path class="cls-1" d="M343.2,57.9c-4.2,0-8.1,1.3-11.5,3.4-.8.5-1.9,0-1.9-1v-10.4c0-4.8-3.9-8.7-8.7-8.7s-8.7,3.9-8.7,8.7v51.1c0,4.8,3.9,8.7,8.7,8.7s8.7-3.9,8.7-8.7v-18.2c0-6.5,3.3-10.2,8.5-10.2s6.6,3,6.6,8.8v19.6c0,4.8,3.9,8.7,8.7,8.7s8.7-3.9,8.7-8.7v-21.6c0-13-7.4-21.5-19-21.5Z"/>
        <path class="cls-1" d="M504.6,57.2c-5.9,0-11.2,2.5-14.9,6.7-.3.4-.9.4-1.2,0-3.2-4.2-8.1-6.6-13.9-6.6s-10.4,2.3-14,6c-.4.4-1,.3-1.3-.2h0c-1.2-2.7-3.9-4.4-6.8-4.4s-7.4,3.3-7.4,7.4v34.6c0,4.7,3.8,8.5,8.5,8.5h.5c4.7,0,8.5-3.8,8.5-8.5v-19.2c0-6.3,2.6-9.6,7.3-9.6s5.6,2.7,5.6,7.8v21c0,4.7,3.8,8.5,8.5,8.5s8.5-3.8,8.5-8.5v-19.2c0-6.4,2.4-9.6,7.2-9.6s5.6,2.5,5.6,7.8v21c0,4.7,3.8,8.5,8.5,8.5h.5c4.7,0,8.5-3.8,8.5-8.5v-23.2c0-11.9-7.2-20.3-18-20.3Z"/>
        <path class="cls-1" d="M429.9,93.2h-9.4c-1,0-1.6-1.1-1.1-2l10.9-18.5,2.8-4.7c2.9-4.9-.6-11.2-6.4-11.2h-23.6c-4.4,0-8.2,3.4-8.3,7.7-.1,4.5,3.5,8.2,8,8.2h8c1,0,1.6,1.1,1.1,2l-11,18.5-2.9,4.8c-2.9,4.9.7,11.2,6.4,11.2h25.7c4.5,0,8.1-3.7,8-8.3-.1-4.4-4-7.8-8.4-7.8Z"/>
      </g>
      <g>
        <path class="cls-1" d="M185.2,13.1c-14.9-4.7-30.8,3.5-35.5,18.4-4.7,14.9,3.5,30.8,18.4,35.5,14.9,4.7,30.8-3.5,35.5-18.4,4.7-14.9-3.5-30.8-18.4-35.5Z"/>
        <path class="cls-1" d="M151.3,84c-14.9-4.7-23.1-20.6-18.4-35.5h0c4.7-14.9-3.5-30.8-18.4-35.5-14.9-4.7-30.8,3.5-35.5,18.4-4.7,14.9,3.5,30.8,18.4,35.5,14.9,4.7,23.1,20.6,18.4,35.5-4.7,14.9,3.5,30.8,18.4,35.5,14.9,4.7,30.8-3.5,35.5-18.4,4.7-14.9-3.5-30.8-18.4-35.5Z"/>
        <path class="cls-1" d="M80.6,84c-14.9-4.7-23.1-20.6-18.4-35.5h0c4.7-14.9-3.5-30.8-18.4-35.5-14.9-4.7-30.8,3.5-35.5,18.4-4.7,14.9,3.5,30.8,18.4,35.5,14.9,4.7,23.1,20.6,18.4,35.5-4.7,14.9,3.5,30.8,18.4,35.5,14.9,4.7,30.8-3.5,35.5-18.4,4.7-14.9-3.5-30.8-18.4-35.5Z"/>
      </g>
    </g>
  </g>
</svg>